<svg width="24" height="24" viewBox="0 0 24 24" fill="none" xmlns="http://www.w3.org/2000/svg">
<path d="M12 3C9.61305 3 7.32387 3.94821 5.63604 5.63604C3.94821 7.32387 3 9.61305 3 12C3 14.3869 3.94821 16.6761 5.63604 18.364C7.32387 20.0518 9.61305 21 12 21C13.8614 21 15.8163 20.4392 17.2295 19.5003C17.3053 19.4499 17.3703 19.3852 17.4211 19.3097C17.4718 19.2342 17.5071 19.1494 17.5251 19.0603C17.543 18.9711 17.5433 18.8793 17.5257 18.7901C17.5082 18.7008 17.4733 18.6159 17.4229 18.5401C17.3726 18.4644 17.3078 18.3993 17.2323 18.3486C17.1568 18.2979 17.0721 18.2625 16.9829 18.2446C16.8938 18.2266 16.8019 18.2264 16.7127 18.2439C16.6235 18.2615 16.5385 18.2964 16.4628 18.3467C15.2885 19.129 13.5759 19.6154 12 19.6154C10.4938 19.6154 9.02146 19.1688 7.76912 18.332C6.51678 17.4952 5.54069 16.3058 4.9643 14.9143C4.38791 13.5228 4.2371 11.9916 4.53094 10.5143C4.82478 9.03707 5.55008 7.68014 6.61511 6.61511C7.68014 5.55008 9.03707 4.82478 10.5143 4.53094C11.9916 4.2371 13.5228 4.38791 14.9143 4.9643C16.3058 5.54069 17.4952 6.51678 18.332 7.76912C19.1688 9.02146 19.6154 10.4938 19.6154 12C19.6154 14.2889 18.6738 14.7692 17.8846 14.7692C17.0954 14.7692 16.1538 14.2889 16.1538 12V8.53846C16.1538 8.35485 16.0809 8.17876 15.9511 8.04893C15.8212 7.91909 15.6452 7.84615 15.4615 7.84615C15.2779 7.84615 15.1018 7.91909 14.972 8.04893C14.8422 8.17876 14.7692 8.35485 14.7692 8.53846V8.90712C14.148 8.35009 13.3733 7.99309 12.5462 7.88262C11.7192 7.77215 10.878 7.91333 10.1323 8.28777C9.38661 8.66221 8.77097 9.25255 8.3656 9.98189C7.96022 10.7112 7.78389 11.5457 7.85959 12.3767C7.93528 13.2077 8.25949 13.9966 8.78997 14.6407C9.32046 15.2848 10.0326 15.7542 10.8337 15.9877C11.6348 16.2213 12.4876 16.2081 13.2811 15.9501C14.0746 15.692 14.772 15.2009 15.2824 14.5408C15.8016 15.5792 16.6973 16.1538 17.8846 16.1538C19.8352 16.1538 21 14.6013 21 12C20.9975 9.61383 20.0485 7.3261 18.3612 5.63882C16.6739 3.95154 14.3862 3.00252 12 3ZM12 14.7692C11.4523 14.7692 10.9169 14.6068 10.4615 14.3025C10.0061 13.9982 9.65116 13.5657 9.44156 13.0597C9.23197 12.5537 9.17713 11.9969 9.28398 11.4598C9.39083 10.9226 9.65457 10.4291 10.0419 10.0419C10.4291 9.65457 10.9226 9.39083 11.4598 9.28398C11.9969 9.17713 12.5537 9.23197 13.0597 9.44156C13.5657 9.65116 13.9982 10.0061 14.3025 10.4615C14.6068 10.9169 14.7692 11.4523 14.7692 12C14.7692 12.7344 14.4775 13.4388 13.9581 13.9581C13.4388 14.4775 12.7344 14.7692 12 14.7692Z" fill="#F5F5F5"/>
</svg>
