<svg width="16" height="17" viewBox="0 0 16 17" fill="none" xmlns="http://www.w3.org/2000/svg">
<path d="M12.25 8.99272L7.12135 14.1214C6.55874 14.684 5.79567 15.0001 5.00002 15.0001C4.20436 15.0001 3.4413 14.684 2.87869 14.1214C2.31607 13.5588 2 12.7957 2 12C2 11.2044 2.31607 10.4413 2.87869 9.87872L10.172 2.58538C10.3578 2.39969 10.5783 2.25241 10.821 2.15195C11.0637 2.05149 11.3238 1.99982 11.5865 1.99988C11.8492 1.99994 12.1092 2.05174 12.3519 2.15231C12.5945 2.25289 12.815 2.40027 13.0007 2.58605C13.1864 2.77182 13.3337 2.99236 13.4341 3.23505C13.5346 3.47775 13.5863 3.73785 13.5862 4.00052C13.5861 4.26319 13.5343 4.52327 13.4338 4.76591C13.3332 5.00856 13.1858 5.22903 13 5.41471L5.70135 12.7134C5.51201 12.8949 5.25893 12.9941 4.99665 12.9908C4.73437 12.9874 4.4839 12.8812 4.29922 12.6949C4.11453 12.5087 4.01042 12.2573 4.00933 11.995C4.00823 11.7327 4.11023 11.4805 4.29335 11.2927L9.50002 6.08605M5.70735 12.7067L5.70069 12.7134" stroke="#A1A3A7" stroke-linecap="round" stroke-linejoin="round"/>
</svg>
