<svg width="16" height="15" viewBox="0 0 16 15" fill="none" xmlns="http://www.w3.org/2000/svg">
<path d="M5.49542 5.9797C5.49542 6.05089 5.46714 6.11918 5.4168 6.16952C5.36645 6.21986 5.29817 6.24815 5.22697 6.24815C5.15578 6.24815 5.08749 6.21986 5.03715 6.16952C4.98681 6.11918 4.95852 6.05089 4.95852 5.9797C4.95852 5.9085 4.98681 5.84022 5.03715 5.78987C5.08749 5.73953 5.15578 5.71125 5.22697 5.71125C5.29817 5.71125 5.36645 5.73953 5.4168 5.78987C5.46714 5.84022 5.49542 5.9085 5.49542 5.9797ZM5.49542 5.9797H5.22697M8.17993 5.9797C8.17993 6.05089 8.15165 6.11918 8.1013 6.16952C8.05096 6.21986 7.98268 6.24815 7.91148 6.24815C7.84028 6.24815 7.772 6.21986 7.72166 6.16952C7.67131 6.11918 7.64303 6.05089 7.64303 5.9797C7.64303 5.9085 7.67131 5.84022 7.72166 5.78987C7.772 5.73953 7.84028 5.71125 7.91148 5.71125C7.98268 5.71125 8.05096 5.73953 8.1013 5.78987C8.15165 5.84022 8.17993 5.9085 8.17993 5.9797ZM8.17993 5.9797H7.91148M10.8644 5.9797C10.8644 6.05089 10.8362 6.11918 10.7858 6.16952C10.7355 6.21986 10.6672 6.24815 10.596 6.24815C10.5248 6.24815 10.4565 6.21986 10.4062 6.16952C10.3558 6.11918 10.3275 6.05089 10.3275 5.9797C10.3275 5.9085 10.3558 5.84022 10.4062 5.78987C10.4565 5.73953 10.5248 5.71125 10.596 5.71125C10.6672 5.71125 10.7355 5.73953 10.7858 5.78987C10.8362 5.84022 10.8644 5.9085 10.8644 5.9797ZM10.8644 5.9797H10.596M0.931763 8.13446C0.931763 9.27985 1.73568 10.2778 2.86962 10.4446C3.64777 10.5591 4.43379 10.6472 5.22697 10.7087V14.0332L8.22217 11.0387C8.37047 10.891 8.56985 10.8059 8.77911 10.8011C10.1762 10.7667 11.5699 10.6476 12.9526 10.4446C14.0873 10.2778 14.8912 9.28057 14.8912 8.13374V3.82565C14.8912 2.67883 14.0873 1.68162 12.9533 1.51483C11.2839 1.26979 9.5988 1.14705 7.91148 1.14758C6.19912 1.14758 4.5154 1.27286 2.86962 1.51483C1.73568 1.68162 0.931763 2.67954 0.931763 3.82565V8.13374V8.13446Z" stroke="#A1A3A7" stroke-width="1.0738" stroke-linecap="round" stroke-linejoin="round"/>
</svg>
