<svg width="24" height="24" viewBox="0 0 24 24" fill="none" xmlns="http://www.w3.org/2000/svg">
<path d="M19.5 3H4.5C4.10218 3 3.72064 3.15172 3.43934 3.42177C3.15804 3.69183 3 4.0581 3 4.44002V9.7303C3 17.7953 10.1081 20.4711 11.5312 20.9256C11.8352 21.0248 12.1648 21.0248 12.4688 20.9256C13.8937 20.4711 21 17.7953 21 9.7303V4.44002C21 4.0581 20.842 3.69183 20.5607 3.42177C20.2794 3.15172 19.8978 3 19.5 3ZM19.5 9.7312C19.5 16.7891 13.2797 19.1472 12 19.5576C10.7316 19.1517 4.5 16.7954 4.5 9.7312V4.44002H19.5V9.7312ZM7.71937 12.1495C7.57864 12.0144 7.49958 11.8312 7.49958 11.6401C7.49958 11.4491 7.57864 11.2658 7.71937 11.1307C7.86011 10.9956 8.05098 10.9197 8.25 10.9197C8.44902 10.9197 8.63989 10.9956 8.78063 11.1307L10.5 12.7814L15.2194 8.25068C15.2891 8.18378 15.3718 8.13072 15.4628 8.09452C15.5539 8.05831 15.6515 8.03968 15.75 8.03968C15.8485 8.03968 15.9461 8.05831 16.0372 8.09452C16.1282 8.13072 16.2109 8.18378 16.2806 8.25068C16.3503 8.31758 16.4056 8.397 16.4433 8.4844C16.481 8.5718 16.5004 8.66548 16.5004 8.76009C16.5004 8.8547 16.481 8.94837 16.4433 9.03578C16.4056 9.12318 16.3503 9.2026 16.2806 9.2695L11.0306 14.3096C10.961 14.3765 10.8783 14.4296 10.7872 14.4659C10.6962 14.5021 10.5986 14.5207 10.5 14.5207C10.4014 14.5207 10.3038 14.5021 10.2128 14.4659C10.1217 14.4296 10.039 14.3765 9.96937 14.3096L7.71937 12.1495Z" fill="#F5F5F5"/>
</svg>
