<svg width="24" height="24" viewBox="0 0 24 24" fill="none" xmlns="http://www.w3.org/2000/svg">
<path d="M19.5 9H16.5V7C16.5 5.93913 16.0259 4.92172 15.182 4.17157C14.3381 3.42143 13.1935 3 12 3C10.8065 3 9.66193 3.42143 8.81802 4.17157C7.97411 4.92172 7.5 5.93913 7.5 7V9H4.5C4.10218 9 3.72064 9.14048 3.43934 9.39052C3.15804 9.64057 3 9.97971 3 10.3333V19.6667C3 20.0203 3.15804 20.3594 3.43934 20.6095C3.72064 20.8595 4.10218 21 4.5 21H19.5C19.8978 21 20.2794 20.8595 20.5607 20.6095C20.842 20.3594 21 20.0203 21 19.6667V10.3333C21 9.97971 20.842 9.64057 20.5607 9.39052C20.2794 9.14048 19.8978 9 19.5 9ZM9 7C9 6.29276 9.31607 5.61448 9.87868 5.11438C10.4413 4.61428 11.2044 4.33333 12 4.33333C12.7956 4.33333 13.5587 4.61428 14.1213 5.11438C14.6839 5.61448 15 6.29276 15 7V9H9V7ZM19.5 19.6667H4.5V10.3333H19.5V19.6667ZM13.125 15C13.125 15.1978 13.059 15.3911 12.9354 15.5556C12.8118 15.72 12.6361 15.8482 12.4305 15.9239C12.225 15.9996 11.9988 16.0194 11.7805 15.9808C11.5623 15.9422 11.3618 15.847 11.2045 15.7071C11.0472 15.5673 10.94 15.3891 10.8966 15.1951C10.8532 15.0011 10.8755 14.8 10.9606 14.6173C11.0458 14.4346 11.19 14.2784 11.375 14.1685C11.56 14.0586 11.7775 14 12 14C12.2984 14 12.5845 14.1054 12.7955 14.2929C13.0065 14.4804 13.125 14.7348 13.125 15Z" fill="#F5F5F5"/>
</svg>
