<svg width="16" height="16" viewBox="0 0 16 16" fill="none" xmlns="http://www.w3.org/2000/svg">
<path d="M4.81137 7.2714C4.64994 6.98094 4.39664 6.75231 4.09122 6.62139C3.78579 6.49047 3.44554 6.46467 3.12387 6.54805C2.8022 6.63143 2.51732 6.81927 2.31396 7.08207C2.11059 7.34487 2.00024 7.66777 2.00024 8.00007C2.00024 8.33237 2.11059 8.65526 2.31396 8.91806C2.51732 9.18087 2.8022 9.3687 3.12387 9.45208C3.44554 9.53546 3.78579 9.50966 4.09122 9.37874C4.39664 9.24782 4.64994 9.01919 4.81137 8.72873M4.81137 7.2714C4.93137 7.4874 5.00003 7.7354 5.00003 8.00007C5.00003 8.26473 4.93137 8.5134 4.81137 8.72873M4.81137 7.2714L11.1887 3.72873M4.81137 8.72873L11.1887 12.2714M11.1887 3.72873C11.2822 3.90483 11.4099 4.06051 11.5642 4.18669C11.7186 4.31286 11.8966 4.407 12.0878 4.46358C12.279 4.52017 12.4795 4.53808 12.6777 4.51626C12.8759 4.49444 13.0677 4.43333 13.242 4.33651C13.4163 4.23968 13.5695 4.10908 13.6927 3.95234C13.816 3.7956 13.9067 3.61587 13.9596 3.42366C14.0126 3.23144 14.0267 3.03059 14.0011 2.83286C13.9756 2.63513 13.9108 2.44449 13.8107 2.27207C13.6134 1.93229 13.2907 1.68349 12.9119 1.57914C12.5331 1.47479 12.1285 1.52323 11.7851 1.71404C11.4416 1.90484 11.1867 2.22279 11.0752 2.59953C10.9637 2.97627 11.0044 3.38172 11.1887 3.72873ZM11.1887 12.2714C11.093 12.4437 11.0322 12.6331 11.0097 12.8288C10.9872 13.0246 11.0035 13.2228 11.0576 13.4123C11.1118 13.6018 11.2027 13.7787 11.3252 13.933C11.4477 14.0874 11.5995 14.216 11.7717 14.3117C11.944 14.4074 12.1334 14.4682 12.3291 14.4907C12.5249 14.5132 12.7231 14.4969 12.9126 14.4428C13.1021 14.3887 13.279 14.2977 13.4333 14.1752C13.5877 14.0527 13.7163 13.901 13.812 13.7287C14.0053 13.3809 14.0524 12.9705 13.9431 12.5878C13.8338 12.2052 13.5769 11.8817 13.229 11.6884C12.8812 11.4951 12.4708 11.448 12.0881 11.5573C11.7055 11.6667 11.382 11.9235 11.1887 12.2714Z" stroke="#A1A3A7" stroke-width="1.0625" stroke-linecap="round" stroke-linejoin="round"/>
</svg>
